<svg xmlns="http://www.w3.org/2000/svg" viewBox="0 0 98.24 53.46"><defs><style>.cls-1{fill:#2edbf1;}.cls-2{fill:#e72242;}</style></defs><title>Asset 5</title><g id="Layer_2" data-name="Layer 2"><g id="Layer_1-2" data-name="Layer 1"><polygon class="cls-1" points="53.41 6.38 47.02 0 26.7 20.32 6.38 0 0 6.38 20.32 26.7 0 47.02 6.38 53.41 26.7 33.09 47.02 53.41 53.41 47.02 33.09 26.7 53.41 6.38"/><path class="cls-2" d="M71.53,0A26.57,26.57,0,0,0,57,4.34l2,2L56.24,9.21,45.78,19.67a26.72,26.72,0,0,0,0,14L56.24,44.19,59.06,47,57,49.13A26.71,26.71,0,1,0,71.53,0Zm0,44.39A17.68,17.68,0,1,1,89.21,26.75,17.7,17.7,0,0,1,71.53,44.43Z"/></g></g></svg>